<?xml version="1.0" encoding="utf-8"?>
<!-- Generator: Adobe Illustrator 16.0.0, SVG Export Plug-In . SVG Version: 6.00 Build 0)  -->
<!DOCTYPE svg PUBLIC "-//W3C//DTD SVG 1.1//EN" "http://www.w3.org/Graphics/SVG/1.1/DTD/svg11.dtd">
<svg version="1.1" id="Layer_1" xmlns="http://www.w3.org/2000/svg" xmlns:xlink="http://www.w3.org/1999/xlink" x="0px" y="0px"
	 width="32.13px" height="28.566px" viewBox="0 0 32.13 28.566" enable-background="new 0 0 32.13 28.566" xml:space="preserve">
<g>
	<path fill="none" stroke="#293F54" stroke-width="0.5669" stroke-miterlimit="10" d="M31.846,27.283c0,0.552-0.447,1-1,1H1.284
		c-0.552,0-1-0.448-1-1v-26c0-0.553,0.448-1,1-1h29.563c0.553,0,1,0.447,1,1V27.283z"/>
	<line fill="none" stroke="#293F54" stroke-width="0.5669" stroke-miterlimit="10" x1="0.096" y1="7.221" x2="31.784" y2="7.221"/>
	<circle fill="#00B1CC" cx="2.846" cy="3.846" r="0.813"/>
	<circle fill="#00B1CC" cx="6.846" cy="3.846" r="0.813"/>
	<circle fill="#00B1CC" cx="10.846" cy="3.846" r="0.813"/>
	<circle fill="#293F54" cx="16.221" cy="3.846" r="0.5"/>
	<circle fill="#293F54" cx="18.747" cy="3.846" r="0.5"/>
	<circle fill="#293F54" cx="21.272" cy="3.846" r="0.5"/>
	<circle fill="#293F54" cx="23.797" cy="3.846" r="0.5"/>
	<circle fill="#293F54" cx="26.322" cy="3.846" r="0.5"/>
	<circle fill="#293F54" cx="28.846" cy="3.846" r="0.5"/>
</g>
<g>
	<path fill="#293F54" d="M8.202,12.727H7.528v-0.397h1.833v0.397H8.688v1.707H8.202V12.727z"/>
	<path fill="#293F54" d="M9.458,13.382c0-0.626,0.487-1.089,1.151-1.089c0.661,0,1.151,0.46,1.151,1.089
		c0,0.628-0.49,1.088-1.151,1.088C9.944,14.47,9.458,14.007,9.458,13.382z M11.267,13.382c0-0.4-0.283-0.674-0.658-0.674
		c-0.376,0-0.658,0.273-0.658,0.674c0,0.399,0.282,0.673,0.658,0.673C10.984,14.055,11.267,13.781,11.267,13.382z"/>
	<path fill="#293F54" d="M13.543,13.349h0.445v0.854c-0.231,0.175-0.55,0.268-0.851,0.268c-0.662,0-1.148-0.454-1.148-1.088
		c0-0.635,0.487-1.089,1.157-1.089c0.37,0,0.676,0.127,0.881,0.364l-0.313,0.288c-0.153-0.162-0.331-0.237-0.544-0.237
		c-0.409,0-0.688,0.273-0.688,0.674c0,0.394,0.279,0.673,0.682,0.673c0.132,0,0.255-0.023,0.379-0.09V13.349z"/>
	<path fill="#293F54" d="M16.064,14.043v0.391h-1.629v-2.104h1.59v0.391h-1.106v0.457h0.977v0.379h-0.977v0.487H16.064z"/>
	<path fill="#293F54" d="M16.883,12.727H16.21v-0.397h1.833v0.397H17.37v1.707h-0.487V12.727z"/>
	<path fill="#293F54" d="M20.231,12.329v2.104h-0.487v-0.862h-0.956v0.862h-0.487v-2.104h0.487v0.83h0.956v-0.83H20.231z"/>
	<path fill="#293F54" d="M22.354,14.043v0.391h-1.629v-2.104h1.59v0.391h-1.106v0.457h0.977v0.379h-0.977v0.487H22.354z"/>
	<path fill="#293F54" d="M24.079,14.434l-0.406-0.586h-0.024h-0.424v0.586h-0.487v-2.104h0.911c0.563,0,0.914,0.292,0.914,0.764
		c0,0.315-0.159,0.547-0.433,0.664l0.472,0.677H24.079z M23.622,12.727h-0.397v0.733h0.397c0.297,0,0.448-0.139,0.448-0.367
		C24.069,12.861,23.919,12.727,23.622,12.727z"/>
</g>
<path fill="#00B1CC" d="M0.284,17.049"/>
<path fill="none" stroke="#293F54" stroke-width="0.3844" stroke-linecap="round" stroke-linejoin="round" stroke-miterlimit="10" d="
	M12.954,22.518c0,0.671-0.543,1.213-1.213,1.213H6.417c-0.671,0-1.213-0.542-1.213-1.213v-5.323c0-0.67,0.542-1.213,1.213-1.213
	h5.323c0.67,0,1.213,0.543,1.213,1.213V22.518z"/>
<path fill="none" stroke="#293F54" stroke-width="0.3844" stroke-linecap="round" stroke-linejoin="round" stroke-miterlimit="10" d="
	M26.195,22.518c0,0.671-0.543,1.213-1.213,1.213h-5.323c-0.67,0-1.213-0.542-1.213-1.213v-5.323c0-0.67,0.543-1.213,1.213-1.213
	h5.323c0.67,0,1.213,0.543,1.213,1.213V22.518z"/>
<polygon fill="#00B1CC" points="9.286,17.447 10.068,19.032 11.818,19.287 10.553,20.522 10.852,22.265 9.286,21.442 7.721,22.265 
	8.02,20.522 6.754,19.287 8.504,19.032 "/>
<path fill="#FFC500" d="M20.165,21.946c0.056-0.164,2.038-4.18,2.038-4.18l2.271,4.18H20.165z"/>
<g>
	<path fill="#293F54" d="M15.961,18.36l0.001,1.191h1.142v0.514l-1.142-0.001l0.001,1.202l-0.535-0.002l0-1.201l-1.142-0.002
		l0-0.513l1.14,0.003l-0.001-1.191H15.961z"/>
</g>
<g>
	<path fill="#293F54" d="M5.697,10.154v0.278H5.039v0.307h0.625v0.278H5.039v0.557H4.723v-1.42H5.697z"/>
	<path fill="#293F54" d="M7.117,10.626c0,0.228-0.09,0.374-0.27,0.44l0.359,0.508h-0.39l-0.314-0.453h-0.22v0.453H5.965v-1.42h0.538
		c0.221,0,0.378,0.038,0.472,0.112C7.069,10.341,7.117,10.461,7.117,10.626z M6.735,10.794c0.039-0.035,0.059-0.091,0.059-0.167
		s-0.021-0.129-0.061-0.157s-0.112-0.043-0.213-0.043H6.282v0.421h0.232C6.622,10.848,6.695,10.83,6.735,10.794z"/>
	<path fill="#293F54" d="M8.465,10.154v0.283H7.758v0.292h0.636V11H7.758v0.294h0.729v0.28H7.442v-1.42H8.465z"/>
	<path fill="#293F54" d="M10.179,10.855c0,0.147-0.038,0.28-0.113,0.397c-0.075,0.118-0.176,0.206-0.304,0.265
		c0.012,0.021,0.032,0.037,0.058,0.052c0.026,0.014,0.054,0.021,0.082,0.021c0.029,0,0.056-0.005,0.083-0.014
		c0.027-0.009,0.049-0.02,0.065-0.031c0.035-0.028,0.06-0.057,0.075-0.083l0.165,0.196c-0.117,0.123-0.262,0.186-0.437,0.186
		c-0.082,0-0.161-0.022-0.24-0.067s-0.139-0.107-0.181-0.188c-0.21,0-0.387-0.07-0.53-0.211c-0.144-0.14-0.215-0.314-0.215-0.522
		c0-0.209,0.072-0.383,0.215-0.523c0.144-0.14,0.32-0.21,0.53-0.21c0.209,0,0.386,0.07,0.53,0.21
		C10.107,10.473,10.179,10.646,10.179,10.855z M9.856,10.856c0-0.127-0.041-0.234-0.122-0.324c-0.081-0.089-0.181-0.134-0.299-0.134
		c-0.119,0-0.218,0.045-0.3,0.134c-0.081,0.09-0.122,0.197-0.122,0.324s0.041,0.234,0.122,0.323c0.082,0.088,0.181,0.133,0.3,0.133
		c0.118,0,0.218-0.045,0.299-0.133C9.816,11.091,9.856,10.983,9.856,10.856z"/>
	<path fill="#293F54" d="M10.825,11.208c0.053,0.065,0.124,0.099,0.213,0.099s0.16-0.033,0.212-0.099
		c0.052-0.066,0.078-0.155,0.078-0.27v-0.784h0.317v0.795c0,0.205-0.057,0.363-0.17,0.474s-0.259,0.166-0.437,0.166
		c-0.178,0-0.323-0.056-0.438-0.167c-0.115-0.111-0.172-0.269-0.172-0.473v-0.795h0.317v0.784
		C10.746,11.053,10.772,11.142,10.825,11.208z"/>
	<path fill="#293F54" d="M12.998,10.154v0.283h-0.707v0.292h0.636V11h-0.636v0.294h0.729v0.28h-1.046v-1.42H12.998z"/>
	<path fill="#293F54" d="M14.295,10.154h0.317v1.42h-0.317l-0.676-0.89v0.89h-0.316v-1.42h0.296l0.696,0.914V10.154z"/>
	<path fill="#293F54" d="M15.563,10.429v1.146h-0.317v-1.146h-0.402v-0.274h1.121v0.274H15.563z"/>
	<path fill="#293F54" d="M16.196,11.574v-1.42h0.316v1.138h0.605v0.282H16.196z"/>
	<path fill="#293F54" d="M17.836,11.574H17.52v-0.561l-0.492-0.859h0.343l0.307,0.528l0.307-0.528h0.343l-0.492,0.859V11.574z"/>
	<path fill="#293F54" d="M19.638,11.574h-0.621v-1.42h0.552c0.096,0,0.179,0.012,0.249,0.035c0.07,0.022,0.123,0.054,0.158,0.093
		c0.063,0.073,0.095,0.156,0.095,0.248c0,0.111-0.036,0.193-0.107,0.248c-0.024,0.019-0.042,0.03-0.051,0.035
		c-0.01,0.005-0.026,0.013-0.051,0.023c0.088,0.02,0.158,0.059,0.21,0.119s0.078,0.135,0.078,0.225c0,0.099-0.034,0.186-0.102,0.262
		C19.97,11.53,19.833,11.574,19.638,11.574z M19.333,10.729h0.15c0.088,0,0.153-0.01,0.196-0.028
		c0.042-0.02,0.064-0.061,0.064-0.123s-0.02-0.104-0.059-0.125s-0.105-0.03-0.199-0.03h-0.152V10.729z M19.333,11.307h0.217
		c0.091,0,0.159-0.012,0.204-0.034c0.045-0.022,0.068-0.066,0.068-0.132s-0.024-0.109-0.072-0.13
		c-0.048-0.021-0.125-0.031-0.23-0.031h-0.187V11.307z"/>
	<path fill="#293F54" d="M21.61,11.378c-0.144,0.141-0.32,0.211-0.53,0.211c-0.21,0-0.387-0.07-0.53-0.211
		c-0.144-0.14-0.215-0.314-0.215-0.522c0-0.209,0.072-0.383,0.215-0.523c0.144-0.14,0.32-0.21,0.53-0.21
		c0.209,0,0.386,0.07,0.53,0.21c0.144,0.141,0.215,0.314,0.215,0.523C21.825,11.063,21.753,11.238,21.61,11.378z M21.502,10.856
		c0-0.127-0.041-0.234-0.122-0.324c-0.081-0.089-0.181-0.134-0.299-0.134c-0.119,0-0.218,0.045-0.3,0.134
		c-0.081,0.09-0.122,0.197-0.122,0.324s0.041,0.234,0.122,0.323c0.082,0.088,0.181,0.133,0.3,0.133c0.118,0,0.218-0.045,0.299-0.133
		C21.462,11.091,21.502,10.983,21.502,10.856z"/>
	<path fill="#293F54" d="M22.469,11.208c0.053,0.065,0.124,0.099,0.213,0.099s0.16-0.033,0.212-0.099
		c0.052-0.066,0.078-0.155,0.078-0.27v-0.784h0.317v0.795c0,0.205-0.057,0.363-0.17,0.474s-0.259,0.166-0.437,0.166
		c-0.178,0-0.323-0.056-0.438-0.167c-0.115-0.111-0.172-0.269-0.172-0.473v-0.795h0.317v0.784
		C22.39,11.053,22.416,11.142,22.469,11.208z"/>
	<path fill="#293F54" d="M24.54,10.852h0.319v0.503c-0.141,0.157-0.336,0.236-0.585,0.236c-0.208,0-0.383-0.069-0.525-0.207
		c-0.142-0.139-0.212-0.313-0.212-0.523c0-0.21,0.072-0.386,0.216-0.527c0.145-0.141,0.318-0.211,0.522-0.211
		s0.381,0.067,0.531,0.201l-0.165,0.237c-0.064-0.055-0.122-0.094-0.176-0.114c-0.054-0.021-0.111-0.031-0.174-0.031
		c-0.12,0-0.222,0.041-0.304,0.122c-0.083,0.082-0.124,0.19-0.124,0.324s0.04,0.241,0.119,0.322c0.079,0.08,0.174,0.12,0.283,0.12
		c0.11,0,0.201-0.021,0.274-0.063V10.852z"/>
	<path fill="#293F54" d="M26.022,10.154h0.316v1.42h-0.316v-0.559h-0.565v0.559h-0.316v-1.42h0.316v0.594h0.565V10.154z"/>
	<path fill="#293F54" d="M27.29,10.429v1.146h-0.317v-1.146H26.57v-0.274h1.121v0.274H27.29z"/>
</g>
</svg>
